<mxfile host="app.diagrams.net" modified="2023-02-09T02:01:45.070Z" agent="5.0 (Windows NT 10.0; Win64; x64) AppleWebKit/537.36 (KHTML, like Gecko) Chrome/110.0.0.0 Safari/537.36" etag="N6XXcxUFybT_fisxGycR" version="20.8.18" type="github">
  <diagram name="Page-1" id="0Ijms01H5gh7qTfVi3M8">
    <mxGraphModel dx="1615" dy="914" grid="1" gridSize="10" guides="1" tooltips="1" connect="1" arrows="1" fold="1" page="1" pageScale="1" pageWidth="850" pageHeight="1100" math="0" shadow="0">
      <root>
        <mxCell id="0" />
        <mxCell id="1" parent="0" />
        <mxCell id="CvDByP89-1qJwjHYxkcs-1" value="" style="rounded=1;whiteSpace=wrap;html=1;" vertex="1" parent="1">
          <mxGeometry x="250" y="120" width="270" height="410" as="geometry" />
        </mxCell>
        <mxCell id="CvDByP89-1qJwjHYxkcs-4" value="Admin&lt;br&gt;" style="shape=umlActor;verticalLabelPosition=bottom;verticalAlign=top;html=1;outlineConnect=0;" vertex="1" parent="1">
          <mxGeometry x="170" y="260" width="30" height="60" as="geometry" />
        </mxCell>
        <mxCell id="CvDByP89-1qJwjHYxkcs-6" value="Register" style="ellipse;whiteSpace=wrap;html=1;" vertex="1" parent="1">
          <mxGeometry x="300" y="130" width="70" height="50" as="geometry" />
        </mxCell>
        <mxCell id="CvDByP89-1qJwjHYxkcs-7" value="Login" style="ellipse;whiteSpace=wrap;html=1;" vertex="1" parent="1">
          <mxGeometry x="388" y="125" width="75" height="55" as="geometry" />
        </mxCell>
        <mxCell id="CvDByP89-1qJwjHYxkcs-8" value="Change Password" style="ellipse;whiteSpace=wrap;html=1;" vertex="1" parent="1">
          <mxGeometry x="320" y="210" width="80" height="60" as="geometry" />
        </mxCell>
        <mxCell id="CvDByP89-1qJwjHYxkcs-9" value="Update&lt;br&gt;Profile" style="ellipse;whiteSpace=wrap;html=1;" vertex="1" parent="1">
          <mxGeometry x="332.5" y="280" width="80" height="60" as="geometry" />
        </mxCell>
        <mxCell id="CvDByP89-1qJwjHYxkcs-13" value="CRUD lembur" style="ellipse;whiteSpace=wrap;html=1;" vertex="1" parent="1">
          <mxGeometry x="412.5" y="240" width="80" height="60" as="geometry" />
        </mxCell>
        <mxCell id="CvDByP89-1qJwjHYxkcs-16" value="generate slip gaji&amp;nbsp;" style="ellipse;whiteSpace=wrap;html=1;" vertex="1" parent="1">
          <mxGeometry x="383" y="340" width="80" height="60" as="geometry" />
        </mxCell>
        <mxCell id="CvDByP89-1qJwjHYxkcs-18" value="menghitung jumlah&lt;br&gt;non-staff" style="ellipse;whiteSpace=wrap;html=1;" vertex="1" parent="1">
          <mxGeometry x="412.5" y="410" width="80" height="60" as="geometry" />
        </mxCell>
        <mxCell id="CvDByP89-1qJwjHYxkcs-20" value="CRUD non staff" style="ellipse;whiteSpace=wrap;html=1;" vertex="1" parent="1">
          <mxGeometry x="280" y="380" width="80" height="60" as="geometry" />
        </mxCell>
        <mxCell id="CvDByP89-1qJwjHYxkcs-23" value="Menambah jam lembur" style="ellipse;whiteSpace=wrap;html=1;" vertex="1" parent="1">
          <mxGeometry x="280" y="450" width="80" height="60" as="geometry" />
        </mxCell>
        <mxCell id="CvDByP89-1qJwjHYxkcs-26" value="" style="endArrow=none;html=1;rounded=0;" edge="1" parent="1" source="CvDByP89-1qJwjHYxkcs-4" target="CvDByP89-1qJwjHYxkcs-6">
          <mxGeometry width="50" height="50" relative="1" as="geometry">
            <mxPoint x="400" y="380" as="sourcePoint" />
            <mxPoint x="450" y="330" as="targetPoint" />
          </mxGeometry>
        </mxCell>
        <mxCell id="CvDByP89-1qJwjHYxkcs-27" value="" style="endArrow=none;html=1;rounded=0;" edge="1" parent="1" source="CvDByP89-1qJwjHYxkcs-4" target="CvDByP89-1qJwjHYxkcs-7">
          <mxGeometry width="50" height="50" relative="1" as="geometry">
            <mxPoint x="203" y="276" as="sourcePoint" />
            <mxPoint x="321" y="183" as="targetPoint" />
          </mxGeometry>
        </mxCell>
        <mxCell id="CvDByP89-1qJwjHYxkcs-28" value="" style="endArrow=none;html=1;rounded=0;" edge="1" parent="1" source="CvDByP89-1qJwjHYxkcs-4" target="CvDByP89-1qJwjHYxkcs-8">
          <mxGeometry width="50" height="50" relative="1" as="geometry">
            <mxPoint x="210" y="291" as="sourcePoint" />
            <mxPoint x="406" y="179" as="targetPoint" />
          </mxGeometry>
        </mxCell>
        <mxCell id="CvDByP89-1qJwjHYxkcs-29" value="" style="endArrow=none;html=1;rounded=0;" edge="1" parent="1" source="CvDByP89-1qJwjHYxkcs-4" target="CvDByP89-1qJwjHYxkcs-13">
          <mxGeometry width="50" height="50" relative="1" as="geometry">
            <mxPoint x="210" y="294" as="sourcePoint" />
            <mxPoint x="322" y="253" as="targetPoint" />
          </mxGeometry>
        </mxCell>
        <mxCell id="CvDByP89-1qJwjHYxkcs-30" value="" style="endArrow=none;html=1;rounded=0;" edge="1" parent="1" source="CvDByP89-1qJwjHYxkcs-4" target="CvDByP89-1qJwjHYxkcs-16">
          <mxGeometry width="50" height="50" relative="1" as="geometry">
            <mxPoint x="195" y="300" as="sourcePoint" />
            <mxPoint x="423" y="283" as="targetPoint" />
          </mxGeometry>
        </mxCell>
        <mxCell id="CvDByP89-1qJwjHYxkcs-31" value="" style="endArrow=none;html=1;rounded=0;" edge="1" parent="1" source="CvDByP89-1qJwjHYxkcs-4" target="CvDByP89-1qJwjHYxkcs-9">
          <mxGeometry width="50" height="50" relative="1" as="geometry">
            <mxPoint x="210" y="304" as="sourcePoint" />
            <mxPoint x="437" y="361" as="targetPoint" />
          </mxGeometry>
        </mxCell>
        <mxCell id="CvDByP89-1qJwjHYxkcs-32" value="" style="endArrow=none;html=1;rounded=0;" edge="1" parent="1" source="CvDByP89-1qJwjHYxkcs-4" target="CvDByP89-1qJwjHYxkcs-20">
          <mxGeometry width="50" height="50" relative="1" as="geometry">
            <mxPoint x="210" y="305" as="sourcePoint" />
            <mxPoint x="384" y="367" as="targetPoint" />
          </mxGeometry>
        </mxCell>
        <mxCell id="CvDByP89-1qJwjHYxkcs-33" value="" style="endArrow=none;html=1;rounded=0;" edge="1" parent="1" source="CvDByP89-1qJwjHYxkcs-4" target="CvDByP89-1qJwjHYxkcs-23">
          <mxGeometry width="50" height="50" relative="1" as="geometry">
            <mxPoint x="220" y="315" as="sourcePoint" />
            <mxPoint x="314" y="397" as="targetPoint" />
          </mxGeometry>
        </mxCell>
        <mxCell id="CvDByP89-1qJwjHYxkcs-34" value="" style="endArrow=none;html=1;rounded=0;" edge="1" parent="1" source="CvDByP89-1qJwjHYxkcs-4" target="CvDByP89-1qJwjHYxkcs-18">
          <mxGeometry width="50" height="50" relative="1" as="geometry">
            <mxPoint x="230" y="325" as="sourcePoint" />
            <mxPoint x="358" y="475" as="targetPoint" />
          </mxGeometry>
        </mxCell>
      </root>
    </mxGraphModel>
  </diagram>
</mxfile>
